ffmpeg version 4.2.4-1ubuntu0.1 Copyright (c) 2000-2020 the FFmpeg developers
  built with gcc 9 (Ubuntu 9.3.0-10ubuntu2)
  configuration: --prefix=/usr --extra-version=1ubuntu0.1 --toolchain=hardened --libdir=/usr/lib/x86_64-linux-gnu --incdir=/usr/include/x86_64-linux-gnu --arch=amd64 --enable-gpl --disable-stripping --enable-avresample --disable-filter=resample --enable-avisynth --enable-gnutls --enable-ladspa --enable-libaom --enable-libass --enable-libbluray --enable-libbs2b --enable-libcaca --enable-libcdio --enable-libcodec2 --enable-libflite --enable-libfontconfig --enable-libfreetype --enable-libfribidi --enable-libgme --enable-libgsm --enable-libjack --enable-libmp3lame --enable-libmysofa --enable-libopenjpeg --enable-libopenmpt --enable-libopus --enable-libpulse --enable-librsvg --enable-librubberband --enable-libshine --enable-libsnappy --enable-libsoxr --enable-libspeex --enable-libssh --enable-libtheora --enable-libtwolame --enable-libvidstab --enable-libvorbis --enable-libvpx --enable-libwavpack --enable-libwebp --enable-libx265 --enable-libxml2 --enable-libxvid --enable-libzmq --enable-libzvbi --enable-lv2 --enable-omx --enable-openal --enable-opencl --enable-opengl --enable-sdl2 --enable-libdc1394 --enable-libdrm --enable-libiec61883 --enable-nvenc --enable-chromaprint --enable-frei0r --enable-libx264 --enable-shared
  WARNING: library configuration mismatch
  avcodec     configuration: --prefix=/usr --extra-version=1ubuntu0.1 --toolchain=hardened --libdir=/usr/lib/x86_64-linux-gnu --incdir=/usr/include/x86_64-linux-gnu --arch=amd64 --enable-gpl --disable-stripping --enable-avresample --disable-filter=resample --enable-avisynth --enable-gnutls --enable-ladspa --enable-libaom --enable-libass --enable-libbluray --enable-libbs2b --enable-libcaca --enable-libcdio --enable-libcodec2 --enable-libflite --enable-libfontconfig --enable-libfreetype --enable-libfribidi --enable-libgme --enable-libgsm --enable-libjack --enable-libmp3lame --enable-libmysofa --enable-libopenjpeg --enable-libopenmpt --enable-libopus --enable-libpulse --enable-librsvg --enable-librubberband --enable-libshine --enable-libsnappy --enable-libsoxr --enable-libspeex --enable-libssh --enable-libtheora --enable-libtwolame --enable-libvidstab --enable-libvorbis --enable-libvpx --enable-libwavpack --enable-libwebp --enable-libx265 --enable-libxml2 --enable-libxvid --enable-libzmq --enable-libzvbi --enable-lv2 --enable-omx --enable-openal --enable-opencl --enable-opengl --enable-sdl2 --enable-libdc1394 --enable-libdrm --enable-libiec61883 --enable-nvenc --enable-chromaprint --enable-frei0r --enable-libx264 --enable-shared --enable-version3 --disable-doc --disable-programs --enable-libaribb24 --enable-liblensfun --enable-libopencore_amrnb --enable-libopencore_amrwb --enable-libtesseract --enable-libvo_amrwbenc
  libavutil      56. 31.100 / 56. 31.100
  libavcodec     58. 54.100 / 58. 54.100
  libavformat    58. 29.100 / 58. 29.100
  libavdevice    58.  8.100 / 58.  8.100
  libavfilter     7. 57.100 /  7. 57.100
  libavresample   4.  0.  0 /  4.  0.  0
  libswscale      5.  5.100 /  5.  5.100
  libswresample   3.  5.100 /  3.  5.100
  libpostproc    55.  5.100 / 55.  5.100
Input #0, image2pipe, from 'pipe:':
  Duration: N/A, bitrate: N/A
    Stream #0:0: Video: ppm, rgb24, 600x600, 25 fps, 25 tbr, 25 tbn, 25 tbc
Stream mapping:
  Stream #0:0 -> #0:0 (ppm (native) -> h264 (libx264))
[libx264 @ 0x5555555e0800] using cpu capabilities: MMX2 SSE2Fast SSSE3 SSE4.2 AVX FMA3 BMI2 AVX2 AVX512
[libx264 @ 0x5555555e0800] profile High, level 3.0
Output #0, mpegts, to 'xmovie.mp4':
  Metadata:
    encoder         : Lavf58.29.100
    Stream #0:0: Video: h264 (libx264), yuv420p, 600x600, q=-1--1, 25 fps, 90k tbn, 25 tbc
    Metadata:
      encoder         : Lavc58.54.100 libx264
    Side data:
      cpb: bitrate max/min/avg: 0/0/0 buffer size: 0 vbv_delay: -1
frame=   10 fps=0.0 q=13.0 size=       6kB time=00:00:00.36 bitrate= 146.2kbits/s speed=0.598x    frame=   14 fps= 12 q=13.0 size=       8kB time=00:00:00.52 bitrate= 133.0kbits/s speed=0.45x    frame=   18 fps= 11 q=13.0 size=      10kB time=00:00:00.68 bitrate= 123.9kbits/s speed= 0.4x    frame=   22 fps=9.7 q=13.0 size=      12kB time=00:00:00.84 bitrate= 118.2kbits/s speed=0.372x    frame=   26 fps=9.2 q=13.0 size=      14kB time=00:00:01.00 bitrate= 114.3kbits/s speed=0.356x    frame=   30 fps=8.9 q=13.0 size=      16kB time=00:00:01.16 bitrate= 110.2kbits/s speed=0.344x    frame=   34 fps=8.6 q=13.0 size=      18kB time=00:00:01.32 bitrate= 109.4kbits/s speed=0.335x    frame=   38 fps=8.5 q=13.0 size=      19kB time=00:00:01.48 bitrate= 106.7kbits/s speed=0.331x    frame=   42 fps=8.3 q=13.0 size=      21kB time=00:00:01.64 bitrate= 105.5kbits/s speed=0.324x    frame=   46 fps=8.1 q=13.0 size=      23kB time=00:00:01.80 bitrate= 105.3kbits/s speed=0.315x    frame=   50 fps=7.9 q=13.0 size=      26kB time=00:00:01.96 bitrate= 109.0kbits/s speed=0.311x    frame=   54 fps=7.9 q=13.0 size=      29kB time=00:00:02.12 bitrate= 110.7kbits/s speed=0.309x    frame=   59 fps=7.9 q=13.0 size=      32kB time=00:00:02.32 bitrate= 111.5kbits/s speed=0.31x    frame=   63 fps=7.8 q=13.0 size=      34kB time=00:00:02.48 bitrate= 111.6kbits/s speed=0.309x    frame=   67 fps=7.8 q=13.0 size=      36kB time=00:00:02.64 bitrate= 111.7kbits/s speed=0.309x    frame=   72 fps=7.9 q=13.0 size=      39kB time=00:00:02.84 bitrate= 111.2kbits/s speed=0.31x    frame=   77 fps=7.9 q=13.0 size=      41kB time=00:00:03.04 bitrate= 110.8kbits/s speed=0.311x    frame=   81 fps=7.9 q=13.0 size=      43kB time=00:00:03.20 bitrate= 110.4kbits/s speed=0.312x    frame=   85 fps=7.9 q=13.0 size=      45kB time=00:00:03.36 bitrate= 110.6kbits/s speed=0.311x    frame=   89 fps=7.9 q=13.0 size=      47kB time=00:00:03.52 bitrate= 109.8kbits/s speed=0.31x    frame=   93 fps=7.8 q=13.0 size=      49kB time=00:00:03.68 bitrate= 109.5kbits/s speed=0.309x    frame=   97 fps=7.8 q=13.0 size=      51kB time=00:00:03.84 bitrate= 109.3kbits/s speed=0.308x    frame=  101 fps=7.8 q=13.0 size=      53kB time=00:00:04.00 bitrate= 109.0kbits/s speed=0.309x    frame=  105 fps=7.8 q=13.0 size=      56kB time=00:00:04.16 bitrate= 109.9kbits/s speed=0.309x    frame=  109 fps=7.8 q=13.0 size=      58kB time=00:00:04.32 bitrate= 109.7kbits/s speed=0.308x    frame=  113 fps=7.8 q=13.0 size=      59kB time=00:00:04.48 bitrate= 108.8kbits/s speed=0.308x    frame=  118 fps=7.8 q=13.0 size=      62kB time=00:00:04.68 bitrate= 108.3kbits/s speed=0.309x    frame=  123 fps=7.8 q=13.0 size=      64kB time=00:00:04.88 bitrate= 107.9kbits/s speed=0.31x    frame=  128 fps=7.8 q=13.0 size=      66kB time=00:00:05.08 bitrate= 106.9kbits/s speed=0.311x    frame=  133 fps=7.9 q=13.0 size=      69kB time=00:00:05.28 bitrate= 107.1kbits/s speed=0.312x    frame=  138 fps=7.9 q=13.0 size=      72kB time=00:00:05.48 bitrate= 107.3kbits/s speed=0.313x    frame=  143 fps=7.9 q=13.0 size=      74kB time=00:00:05.68 bitrate= 106.2kbits/s speed=0.313x    frame=  148 fps=7.9 q=13.0 size=      76kB time=00:00:05.88 bitrate= 105.6kbits/s speed=0.314x    frame=  153 fps=7.9 q=13.0 size=      79kB time=00:00:06.08 bitrate= 105.9kbits/s speed=0.315x    frame=  157 fps=7.9 q=13.0 size=      80kB time=00:00:06.24 bitrate= 105.1kbits/s speed=0.314x    frame=  162 fps=7.9 q=13.0 size=      83kB time=00:00:06.44 bitrate= 105.1kbits/s speed=0.315x    frame=  166 fps=7.9 q=13.0 size=      85kB time=00:00:06.60 bitrate= 105.3kbits/s speed=0.315x    frame=  171 fps=7.9 q=13.0 size=      87kB time=00:00:06.80 bitrate= 105.3kbits/s speed=0.315x    frame=  175 fps=7.9 q=13.0 size=      89kB time=00:00:06.96 bitrate= 105.0kbits/s speed=0.315x    frame=  179 fps=7.9 q=13.0 size=      91kB time=00:00:07.12 bitrate= 104.4kbits/s speed=0.315x    frame=  183 fps=7.9 q=13.0 size=      92kB time=00:00:07.28 bitrate= 103.7kbits/s speed=0.315x    frame=  188 fps=7.9 q=13.0 size=      94kB time=00:00:07.48 bitrate= 103.3kbits/s speed=0.316x    frame=  189 fps=7.9 q=13.0 Lsize=      95kB time=00:00:07.52 bitrate= 103.2kbits/s speed=0.314x    
video:67kB audio:0kB subtitle:0kB other streams:0kB global headers:0kB muxing overhead: 42.265503%
[libx264 @ 0x5555555e0800] frame I:1     Avg QP: 0.28  size:  1218
[libx264 @ 0x5555555e0800] frame P:188   Avg QP: 0.60  size:   356
[libx264 @ 0x5555555e0800] mb I  I16..4: 99.9%  0.0%  0.1%
[libx264 @ 0x5555555e0800] mb P  I16..4:  0.9%  0.1%  0.0%  P16..4:  0.9%  0.2%  0.1%  0.0%  0.0%    skip:97.8%
[libx264 @ 0x5555555e0800] 8x8 transform intra:6.7% inter:49.1%
[libx264 @ 0x5555555e0800] coded y,uvDC,uvAC intra: 4.0% 15.4% 10.9% inter: 0.1% 0.7% 0.3%
[libx264 @ 0x5555555e0800] i16 v,h,dc,p: 65% 24% 11%  0%
[libx264 @ 0x5555555e0800] i8 v,h,dc,ddl,ddr,vr,hd,vl,hu: 10%  8% 59%  5%  4%  4%  4%  3%  2%
[libx264 @ 0x5555555e0800] i4 v,h,dc,ddl,ddr,vr,hd,vl,hu: 12%  9% 46%  6%  7%  6%  4%  5%  4%
[libx264 @ 0x5555555e0800] i8c dc,h,v,p: 69% 25%  4%  2%
[libx264 @ 0x5555555e0800] Weighted P-Frames: Y:0.5% UV:0.0%
[libx264 @ 0x5555555e0800] ref P L0: 72.4%  3.8% 10.2%  6.1%  3.6%  3.9%
[libx264 @ 0x5555555e0800] kb/s:72.16
Exiting normally, received signal 2.
ffmpeg version 4.2.4-1ubuntu0.1 Copyright (c) 2000-2020 the FFmpeg developers
  built with gcc 9 (Ubuntu 9.3.0-10ubuntu2)
  configuration: --prefix=/usr --extra-version=1ubuntu0.1 --toolchain=hardened --libdir=/usr/lib/x86_64-linux-gnu --incdir=/usr/include/x86_64-linux-gnu --arch=amd64 --enable-gpl --disable-stripping --enable-avresample --disable-filter=resample --enable-avisynth --enable-gnutls --enable-ladspa --enable-libaom --enable-libass --enable-libbluray --enable-libbs2b --enable-libcaca --enable-libcdio --enable-libcodec2 --enable-libflite --enable-libfontconfig --enable-libfreetype --enable-libfribidi --enable-libgme --enable-libgsm --enable-libjack --enable-libmp3lame --enable-libmysofa --enable-libopenjpeg --enable-libopenmpt --enable-libopus --enable-libpulse --enable-librsvg --enable-librubberband --enable-libshine --enable-libsnappy --enable-libsoxr --enable-libspeex --enable-libssh --enable-libtheora --enable-libtwolame --enable-libvidstab --enable-libvorbis --enable-libvpx --enable-libwavpack --enable-libwebp --enable-libx265 --enable-libxml2 --enable-libxvid --enable-libzmq --enable-libzvbi --enable-lv2 --enable-omx --enable-openal --enable-opencl --enable-opengl --enable-sdl2 --enable-libdc1394 --enable-libdrm --enable-libiec61883 --enable-nvenc --enable-chromaprint --enable-frei0r --enable-libx264 --enable-shared
  WARNING: library configuration mismatch
  avcodec     configuration: --prefix=/usr --extra-version=1ubuntu0.1 --toolchain=hardened --libdir=/usr/lib/x86_64-linux-gnu --incdir=/usr/include/x86_64-linux-gnu --arch=amd64 --enable-gpl --disable-stripping --enable-avresample --disable-filter=resample --enable-avisynth --enable-gnutls --enable-ladspa --enable-libaom --enable-libass --enable-libbluray --enable-libbs2b --enable-libcaca --enable-libcdio --enable-libcodec2 --enable-libflite --enable-libfontconfig --enable-libfreetype --enable-libfribidi --enable-libgme --enable-libgsm --enable-libjack --enable-libmp3lame --enable-libmysofa --enable-libopenjpeg --enable-libopenmpt --enable-libopus --enable-libpulse --enable-librsvg --enable-librubberband --enable-libshine --enable-libsnappy --enable-libsoxr --enable-libspeex --enable-libssh --enable-libtheora --enable-libtwolame --enable-libvidstab --enable-libvorbis --enable-libvpx --enable-libwavpack --enable-libwebp --enable-libx265 --enable-libxml2 --enable-libxvid --enable-libzmq --enable-libzvbi --enable-lv2 --enable-omx --enable-openal --enable-opencl --enable-opengl --enable-sdl2 --enable-libdc1394 --enable-libdrm --enable-libiec61883 --enable-nvenc --enable-chromaprint --enable-frei0r --enable-libx264 --enable-shared --enable-version3 --disable-doc --disable-programs --enable-libaribb24 --enable-liblensfun --enable-libopencore_amrnb --enable-libopencore_amrwb --enable-libtesseract --enable-libvo_amrwbenc
  libavutil      56. 31.100 / 56. 31.100
  libavcodec     58. 54.100 / 58. 54.100
  libavformat    58. 29.100 / 58. 29.100
  libavdevice    58.  8.100 / 58.  8.100
  libavfilter     7. 57.100 /  7. 57.100
  libavresample   4.  0.  0 /  4.  0.  0
  libswscale      5.  5.100 /  5.  5.100
  libswresample   3.  5.100 /  3.  5.100
  libpostproc    55.  5.100 / 55.  5.100
Input #0, image2pipe, from 'pipe:':
  Duration: N/A, bitrate: N/A
    Stream #0:0: Video: ppm, rgb24, 600x600, 25 fps, 25 tbr, 25 tbn, 25 tbc
Stream mapping:
  Stream #0:0 -> #0:0 (ppm (native) -> h264 (libx264))
[libx264 @ 0x5555555e0800] using cpu capabilities: MMX2 SSE2Fast SSSE3 SSE4.2 AVX FMA3 BMI2 AVX2 AVX512
[libx264 @ 0x5555555e0800] profile High, level 3.0
Output #0, mpegts, to 'ymovie.mp4':
  Metadata:
    encoder         : Lavf58.29.100
    Stream #0:0: Video: h264 (libx264), yuv420p, 600x600, q=-1--1, 25 fps, 90k tbn, 25 tbc
    Metadata:
      encoder         : Lavc58.54.100 libx264
    Side data:
      cpb: bitrate max/min/avg: 0/0/0 buffer size: 0 vbv_delay: -1
frame=   10 fps=0.0 q=13.0 size=       7kB time=00:00:00.36 bitrate= 154.6kbits/s speed=0.616x    frame=   14 fps= 12 q=13.0 size=       9kB time=00:00:00.52 bitrate= 144.6kbits/s speed=0.457x    frame=   18 fps= 11 q=13.0 size=      11kB time=00:00:00.68 bitrate= 132.7kbits/s speed=0.405x    frame=   22 fps=9.8 q=13.0 size=      13kB time=00:00:00.84 bitrate= 128.9kbits/s speed=0.376x    frame=   26 fps=9.3 q=13.0 size=      15kB time=00:00:01.00 bitrate= 126.3kbits/s speed=0.357x    frame=   30 fps=8.9 q=13.0 size=      18kB time=00:00:01.16 bitrate= 124.5kbits/s speed=0.346x    frame=   34 fps=8.7 q=13.0 size=      19kB time=00:00:01.32 bitrate= 120.8kbits/s speed=0.337x    frame=   38 fps=8.5 q=13.0 size=      21kB time=00:00:01.48 bitrate= 118.9kbits/s speed=0.332x    frame=   42 fps=8.3 q=13.0 size=      24kB time=00:00:01.64 bitrate= 120.1kbits/s speed=0.325x    frame=   46 fps=8.1 q=13.0 size=      26kB time=00:00:01.80 bitrate= 120.3kbits/s speed=0.317x    frame=   50 fps=7.9 q=13.0 size=      28kB time=00:00:01.96 bitrate= 118.9kbits/s speed=0.311x    frame=   54 fps=7.9 q=13.0 size=      30kB time=00:00:02.12 bitrate= 115.6kbits/s speed=0.31x    frame=   59 fps=7.9 q=13.0 size=      32kB time=00:00:02.32 bitrate= 113.4kbits/s speed=0.311x    frame=   63 fps=7.9 q=13.0 size=      34kB time=00:00:02.48 bitrate= 111.6kbits/s speed=0.309x    frame=   67 fps=7.9 q=13.0 size=      35kB time=00:00:02.64 bitrate= 109.4kbits/s speed=0.31x    frame=   71 fps=7.9 q=13.0 size=      37kB time=00:00:02.80 bitrate= 107.4kbits/s speed=0.31x    frame=   76 fps=7.9 q=13.0 size=      40kB time=00:00:03.00 bitrate= 108.3kbits/s speed=0.312x    frame=   81 fps=7.9 q=13.0 size=      42kB time=00:00:03.20 bitrate= 108.1kbits/s speed=0.312x    frame=   85 fps=7.9 q=13.0 size=      44kB time=00:00:03.36 bitrate= 108.3kbits/s speed=0.312x    frame=   89 fps=7.9 q=13.0 size=      47kB time=00:00:03.52 bitrate= 108.5kbits/s speed=0.311x    frame=   93 fps=7.8 q=13.0 size=      49kB time=00:00:03.68 bitrate= 108.7kbits/s speed=0.31x    frame=   97 fps=7.8 q=13.0 size=      51kB time=00:00:03.84 bitrate= 108.5kbits/s speed=0.309x    frame=  101 fps=7.8 q=13.0 size=      53kB time=00:00:04.00 bitrate= 109.0kbits/s speed=0.309x    frame=  105 fps=7.8 q=13.0 size=      55kB time=00:00:04.16 bitrate= 109.2kbits/s speed=0.309x    frame=  109 fps=7.8 q=13.0 size=      57kB time=00:00:04.32 bitrate= 107.9kbits/s speed=0.309x    frame=  113 fps=7.8 q=13.0 size=      58kB time=00:00:04.48 bitrate= 106.8kbits/s speed=0.308x    frame=  118 fps=7.8 q=13.0 size=      60kB time=00:00:04.68 bitrate= 105.4kbits/s speed=0.31x    frame=  123 fps=7.8 q=13.0 size=      62kB time=00:00:04.88 bitrate= 104.2kbits/s speed=0.311x    frame=  128 fps=7.9 q=13.0 size=      64kB time=00:00:05.08 bitrate= 103.6kbits/s speed=0.312x    frame=  132 fps=7.9 q=13.0 size=      66kB time=00:00:05.24 bitrate= 102.8kbits/s speed=0.312x    frame=  137 fps=7.9 q=13.0 size=      68kB time=00:00:05.44 bitrate= 101.7kbits/s speed=0.313x    frame=  142 fps=7.9 q=13.0 size=      70kB time=00:00:05.64 bitrate= 101.3kbits/s speed=0.313x    frame=  147 fps=7.9 q=13.0 size=      72kB time=00:00:05.84 bitrate= 101.0kbits/s speed=0.314x    frame=  152 fps=7.9 q=13.0 size=      74kB time=00:00:06.04 bitrate= 100.1kbits/s speed=0.315x    frame=  156 fps=7.9 q=13.0 size=      75kB time=00:00:06.20 bitrate=  99.7kbits/s speed=0.315x    frame=  161 fps=7.9 q=13.0 size=      79kB time=00:00:06.40 bitrate= 100.8kbits/s speed=0.315x    frame=  165 fps=7.9 q=13.0 size=      81kB time=00:00:06.56 bitrate= 100.9kbits/s speed=0.315x    frame=  170 fps=7.9 q=13.0 size=      83kB time=00:00:06.76 bitrate= 100.3kbits/s speed=0.316x    frame=  174 fps=7.9 q=13.0 size=      84kB time=00:00:06.92 bitrate= 100.0kbits/s speed=0.316x    frame=  178 fps=7.9 q=13.0 size=      87kB time=00:00:07.08 bitrate= 100.7kbits/s speed=0.316x    frame=  182 fps=7.9 q=13.0 size=      88kB time=00:00:07.24 bitrate= 100.1kbits/s speed=0.316x    frame=  187 fps=7.9 q=13.0 size=      91kB time=00:00:07.44 bitrate= 100.1kbits/s speed=0.316x    Error while decoding stream #0:0: Invalid data found when processing input
frame=  188 fps=7.9 q=13.0 Lsize=      91kB time=00:00:07.48 bitrate=  99.9kbits/s speed=0.313x    
video:66kB audio:0kB subtitle:0kB other streams:0kB global headers:0kB muxing overhead: 38.820629%
[libx264 @ 0x5555555e0800] frame I:1     Avg QP: 0.28  size:  1218
[libx264 @ 0x5555555e0800] frame P:187   Avg QP: 0.64  size:   353
[libx264 @ 0x5555555e0800] mb I  I16..4: 99.9%  0.0%  0.1%
[libx264 @ 0x5555555e0800] mb P  I16..4:  1.1%  0.1%  0.0%  P16..4:  0.9%  0.2%  0.1%  0.0%  0.0%    skip:97.6%
[libx264 @ 0x5555555e0800] 8x8 transform intra:8.3% inter:54.8%
[libx264 @ 0x5555555e0800] coded y,uvDC,uvAC intra: 4.5% 13.2% 9.9% inter: 0.2% 0.5% 0.2%
[libx264 @ 0x5555555e0800] i16 v,h,dc,p: 63% 28%  8%  0%
[libx264 @ 0x5555555e0800] i8 v,h,dc,ddl,ddr,vr,hd,vl,hu: 22%  7% 53%  3%  4%  3%  3%  2%  3%
[libx264 @ 0x5555555e0800] i4 v,h,dc,ddl,ddr,vr,hd,vl,hu: 15% 12% 46%  5%  5%  4%  5%  3%  4%
[libx264 @ 0x5555555e0800] i8c dc,h,v,p: 65% 29%  5%  1%
[libx264 @ 0x5555555e0800] Weighted P-Frames: Y:1.1% UV:0.5%
[libx264 @ 0x5555555e0800] ref P L0: 70.0% 10.2%  9.4%  4.1%  2.7%  3.5%
[libx264 @ 0x5555555e0800] kb/s:71.60
Exiting normally, received signal 2.
../sysdeps/unix/sysv/linux/write.c:26:error: [Thread debugging using libthread_db enabled]
../sysdeps/unix/sysv/linux/write.c:26:error: Using host libthread_db library "/lib/x86_64-linux-gnu/libthread_db.so.1".
../sysdeps/unix/sysv/linux/write.c:26:error: [New Thread 0x7ffff452b700 (LWP 25708)]
../sysdeps/unix/sysv/linux/write.c:26:error: [New Thread 0x7ffff3d2a700 (LWP 25709)]
../sysdeps/unix/sysv/linux/write.c:26:error: [New Thread 0x7ffff3529700 (LWP 25710)]
../sysdeps/unix/sysv/linux/write.c:26:error: Thread 1 "around_circle" received signal SIGINT, Interrupt.
